<svg width="58" height="58" viewBox="0 0 58 58" fill="none" xmlns="http://www.w3.org/2000/svg">
<path d="M36.9989 21.0002L20.9989 37.0002M36.9989 37.0002H36.9723M21.0256 21.0002H20.9989M17.5109 49.3095C19.0843 49.3095 19.8736 49.3095 20.5909 49.5762C20.6923 49.6135 20.7909 49.6544 20.8869 49.6989C21.5829 50.0189 22.1403 50.5735 23.2549 51.6882C25.8203 54.2535 27.1029 55.5362 28.6789 55.6562C28.8923 55.6722 29.1056 55.6722 29.3189 55.6562C30.8949 55.5362 32.1776 54.2535 34.7429 51.6882C35.8576 50.5735 36.4149 50.0189 37.1109 49.6989C37.2069 49.6544 37.3047 49.6135 37.4043 49.5762C38.1243 49.3095 38.9109 49.3095 40.4869 49.3095H40.7803C44.7989 49.3095 46.8096 49.3095 48.0603 48.0615C49.3109 46.8135 49.3083 44.8002 49.3083 40.7815V40.4882C49.3083 38.9149 49.3083 38.1255 49.5749 37.4082C49.6123 37.3069 49.6531 37.2082 49.6976 37.1122C50.0176 36.4162 50.5723 35.8589 51.6869 34.7442C54.2523 32.1789 55.5349 30.8962 55.6549 29.3202C55.6709 29.1069 55.6709 28.8935 55.6549 28.6802C55.5349 27.1042 54.2523 25.8215 51.6869 23.2562C50.5723 22.1415 50.0176 21.5842 49.6976 20.8882L49.5749 20.5949C49.3083 19.8749 49.3083 19.0882 49.3083 17.5122V17.2189C49.3083 13.2002 49.3083 11.1895 48.0603 9.93887C46.8123 8.6882 44.7989 8.69087 40.7803 8.69087H40.4869C38.9136 8.69087 38.1243 8.69087 37.4069 8.4242L37.1109 8.30154C36.4149 7.98154 35.8576 7.42687 34.7429 6.3122C32.1776 3.74687 30.8949 2.4642 29.3189 2.3442C29.1058 2.33139 28.8921 2.33139 28.6789 2.3442C27.1029 2.4642 25.8203 3.74687 23.2549 6.3122C22.1403 7.42687 21.5829 7.9842 20.8869 8.30154L20.5936 8.4242C19.8736 8.69087 19.0869 8.69087 17.5109 8.69087H17.2176C13.1989 8.69087 11.1883 8.69087 9.93759 9.93887C8.68692 11.1869 8.68959 13.2002 8.68959 17.2189V17.5122C8.68959 19.0855 8.68959 19.8749 8.42292 20.5922C8.38381 20.6935 8.34292 20.7922 8.30025 20.8882C7.98025 21.5842 7.42559 22.1415 6.31092 23.2562C3.74559 25.8215 2.46292 27.1042 2.34292 28.6802C2.33011 28.8933 2.33011 29.1071 2.34292 29.3202C2.46292 30.8962 3.74559 32.1789 6.31092 34.7442C7.42559 35.8589 7.98292 36.4162 8.30025 37.1122C8.3447 37.2082 8.38559 37.306 8.42292 37.4055C8.68959 38.1255 8.68959 38.9122 8.68959 40.4882V40.7815C8.68959 44.8002 8.68959 46.8109 9.93759 48.0615C11.1856 49.3122 13.1989 49.3095 17.2176 49.3095H17.5109Z" stroke="#383838" stroke-width="4" stroke-linecap="round" stroke-linejoin="round"/>
</svg>
